<svg xmlns="http://www.w3.org/2000/svg" viewBox="0 0 100 100">
  <rect width="100" height="100" fill="#09090b"/> <path 
    fill="#ffffff" 
    d="M50 34c-8.8 0-16 7.2-16 16s7.2 16 16 16 16-7.2 16-16-7.2-16-16-16zm0 24c-4.4 0-8-3.6-8-8s3.6-8 8-8 8 3.6 8 8-3.6 8-8 8z"
  />
  <path 
    fill="#ffffff" 
    d="M54 20h-8l-2 6c-2.4.6-4.6 1.7-6.5 3.1l-5.6-2.5-5.7 5.7 2.5 5.6c-1.4 1.9-2.5 4.1-3.1 6.5l-6 2v8l6 2c.6 2.4 1.7 4.6 3.1 6.5l-2.5 5.6 5.7 5.7 5.6-2.5c1.9 1.4 4.1 2.5 6.5 3.1l2 6h8l2-6c2.4-.6 4.6-1.7 6.5-3.1l5.6 2.5 5.7-5.7-2.5-5.6c1.4-1.9 2.5-4.1 3.1-6.5l6-2v-8l-6-2c-.6-2.4-1.7-4.6-3.1-6.5l2.5-5.6-5.7-5.7-5.6 2.5c-1.9-1.4-4.1-2.5-6.5-3.1l-2-6zM50 74c-13.3 0-24-10.7-24-24s10.7-24 24-24 24 10.7 24 24-10.7 24-24 24z"
  />
</svg>